<svg width="85" height="69" viewBox="0 0 85 69" fill="none" xmlns="http://www.w3.org/2000/svg">
<path d="M81.0156 40.7692C76.349 48.7692 69.349 51.4359 60.0156 48.7692C50.6823 46.1026 42.6823 49.9359 36.0156 60.2692C29.349 70.6026 23.5156 71.6026 18.5156 63.2692C13.5156 54.9359 8.51562 47.1026 3.51562 39.7692C-1.48438 32.4359 -1.15104 25.4359 4.51562 18.7692C10.1823 12.1026 16.0156 6.76923 22.0156 2.76923C28.0156 -1.23077 33.6823 -0.897436 39.0156 3.76923C44.349 8.4359 51.849 9.60256 61.5156 7.26923C71.1823 4.9359 78.0156 7.9359 82.0156 16.2692C86.0156 24.6026 85.6823 32.7692 81.0156 40.7692Z" fill="#30FFA8"/>
</svg>
